<mxfile host="65bd71144e">
    <diagram id="KrZRIk_vdVKmEKjMzfFi" name="Page-1">
        <mxGraphModel dx="1132" dy="604" grid="1" gridSize="10" guides="1" tooltips="1" connect="1" arrows="1" fold="1" page="0" pageScale="1" pageWidth="850" pageHeight="1100" background="#ffffff" math="0" shadow="0">
            <root>
                <mxCell id="0"/>
                <mxCell id="1" parent="0"/>
                <mxCell id="2" value="" style="verticalLabelPosition=bottom;verticalAlign=top;html=1;shadow=0;dashed=0;strokeWidth=1;shape=mxgraph.android.phone2;strokeColor=#c0c0c0;fontSize=14;container=1;recursiveResize=0;" parent="1" vertex="1">
                    <mxGeometry x="120" y="640" width="280" height="560" as="geometry"/>
                </mxCell>
                <mxCell id="3" value="Home page" style="text;html=1;strokeColor=none;fillColor=none;align=center;verticalAlign=middle;whiteSpace=wrap;rounded=0;fontSize=14;" parent="2" vertex="1">
                    <mxGeometry x="80" y="20" width="120" height="30" as="geometry"/>
                </mxCell>
                <mxCell id="4" value="" style="rounded=0;whiteSpace=wrap;html=1;fontSize=14;container=1;" parent="2" vertex="1">
                    <mxGeometry x="10" y="50" width="260" height="40" as="geometry"/>
                </mxCell>
                <mxCell id="5" value="" style="whiteSpace=wrap;html=1;aspect=fixed;fontSize=14;" parent="4" vertex="1">
                    <mxGeometry x="5" y="5" width="30" height="30" as="geometry"/>
                </mxCell>
                <mxCell id="6" value="" style="rounded=1;whiteSpace=wrap;html=1;fontSize=14;container=1;" parent="2" vertex="1">
                    <mxGeometry x="30" y="110" width="220" height="30" as="geometry"/>
                </mxCell>
                <mxCell id="7" value="Search bar" style="text;html=1;strokeColor=none;fillColor=none;align=center;verticalAlign=middle;whiteSpace=wrap;rounded=0;fontSize=14;" parent="6" vertex="1">
                    <mxGeometry x="50" width="120" height="30" as="geometry"/>
                </mxCell>
                <mxCell id="8" value="" style="rounded=0;whiteSpace=wrap;html=1;fontSize=14;container=1;" parent="2" vertex="1">
                    <mxGeometry x="10" y="470" width="60" height="40" as="geometry"/>
                </mxCell>
                <mxCell id="9" value="&lt;b&gt;&lt;u&gt;Home&lt;/u&gt;&lt;/b&gt;" style="text;html=1;strokeColor=none;fillColor=none;align=center;verticalAlign=middle;whiteSpace=wrap;rounded=0;fontSize=14;" parent="8" vertex="1">
                    <mxGeometry x="18.461538461538463" y="5" width="27.692307692307686" height="30" as="geometry"/>
                </mxCell>
                <mxCell id="10" value="" style="rounded=0;whiteSpace=wrap;html=1;fontSize=14;container=1;" parent="2" vertex="1">
                    <mxGeometry x="210" y="470" width="60" height="40" as="geometry"/>
                </mxCell>
                <mxCell id="11" value="Cart" style="text;html=1;strokeColor=none;fillColor=none;align=center;verticalAlign=middle;whiteSpace=wrap;rounded=0;fontSize=14;movable=1;resizable=1;rotatable=1;deletable=1;editable=1;connectable=1;" parent="10" vertex="1">
                    <mxGeometry x="19.999999999999996" y="5" width="23.846666666666668" height="30" as="geometry"/>
                </mxCell>
                <mxCell id="12" value="" style="rounded=0;whiteSpace=wrap;html=1;fontSize=14;container=1;" parent="2" vertex="1">
                    <mxGeometry x="30" y="170" width="100" height="120" as="geometry"/>
                </mxCell>
                <mxCell id="13" value="Item" style="text;html=1;strokeColor=none;fillColor=none;align=center;verticalAlign=middle;whiteSpace=wrap;rounded=0;fontSize=14;" parent="12" vertex="1">
                    <mxGeometry x="20" y="45" width="60" height="30" as="geometry"/>
                </mxCell>
                <mxCell id="14" value="" style="rounded=0;whiteSpace=wrap;html=1;fontSize=14;container=1;" parent="2" vertex="1">
                    <mxGeometry x="150" y="170" width="100" height="120" as="geometry"/>
                </mxCell>
                <mxCell id="15" value="Item" style="text;html=1;strokeColor=none;fillColor=none;align=center;verticalAlign=middle;whiteSpace=wrap;rounded=0;fontSize=14;" parent="14" vertex="1">
                    <mxGeometry x="20" y="45" width="60" height="30" as="geometry"/>
                </mxCell>
                <mxCell id="16" value="" style="rounded=0;whiteSpace=wrap;html=1;fontSize=14;container=1;" parent="2" vertex="1">
                    <mxGeometry x="30" y="310" width="100" height="120" as="geometry"/>
                </mxCell>
                <mxCell id="17" value="Item" style="text;html=1;strokeColor=none;fillColor=none;align=center;verticalAlign=middle;whiteSpace=wrap;rounded=0;fontSize=14;" parent="16" vertex="1">
                    <mxGeometry x="20" y="45" width="60" height="30" as="geometry"/>
                </mxCell>
                <mxCell id="18" value="" style="rounded=0;whiteSpace=wrap;html=1;fontSize=14;container=1;" parent="2" vertex="1">
                    <mxGeometry x="150" y="310" width="100" height="120" as="geometry"/>
                </mxCell>
                <mxCell id="19" value="Item" style="text;html=1;strokeColor=none;fillColor=none;align=center;verticalAlign=middle;whiteSpace=wrap;rounded=0;fontSize=14;" parent="18" vertex="1">
                    <mxGeometry x="20" y="45" width="60" height="30" as="geometry"/>
                </mxCell>
                <mxCell id="20" value="" style="rounded=0;whiteSpace=wrap;html=1;fontSize=14;container=1;" parent="2" vertex="1">
                    <mxGeometry x="140" y="470" width="70" height="40" as="geometry"/>
                </mxCell>
                <mxCell id="21" value="Favorites" style="text;html=1;strokeColor=none;fillColor=none;align=center;verticalAlign=middle;whiteSpace=wrap;rounded=0;fontSize=14;movable=0;resizable=0;rotatable=0;deletable=0;editable=0;connectable=0;" parent="20" vertex="1">
                    <mxGeometry x="10" y="5" width="60" height="30" as="geometry"/>
                </mxCell>
                <mxCell id="22" value="Lucky wheel" style="rounded=0;whiteSpace=wrap;html=1;container=1;" parent="2" vertex="1">
                    <mxGeometry x="70" y="470" width="70" height="40" as="geometry"/>
                </mxCell>
                <mxCell id="23" value="" style="rounded=0;whiteSpace=wrap;html=1;fontSize=14;container=1;" parent="1" vertex="1">
                    <mxGeometry x="425" y="750" width="120" height="30" as="geometry"/>
                </mxCell>
                <mxCell id="24" value="Search for items" style="text;html=1;strokeColor=none;fillColor=none;align=center;verticalAlign=middle;whiteSpace=wrap;rounded=0;fontSize=14;" parent="23" vertex="1">
                    <mxGeometry x="4.75" width="115.25" height="30" as="geometry"/>
                </mxCell>
                <mxCell id="26" style="edgeStyle=none;html=1;exitX=1;exitY=0.5;exitDx=0;exitDy=0;entryX=0;entryY=0.5;entryDx=0;entryDy=0;" parent="1" source="6" target="23" edge="1">
                    <mxGeometry relative="1" as="geometry"/>
                </mxCell>
                <mxCell id="27" value="" style="rounded=0;whiteSpace=wrap;html=1;fontSize=14;container=1;" parent="1" vertex="1">
                    <mxGeometry x="425" y="855" width="200" height="30" as="geometry"/>
                </mxCell>
                <mxCell id="28" value="Go to info page for this item" style="text;html=1;strokeColor=none;fillColor=none;align=left;verticalAlign=middle;whiteSpace=wrap;rounded=0;fontSize=14;" parent="27" vertex="1">
                    <mxGeometry x="10" width="180" height="30" as="geometry"/>
                </mxCell>
                <mxCell id="29" style="edgeStyle=none;html=1;exitX=1;exitY=0.5;exitDx=0;exitDy=0;entryX=0;entryY=0.5;entryDx=0;entryDy=0;" parent="1" source="14" target="27" edge="1">
                    <mxGeometry relative="1" as="geometry"/>
                </mxCell>
                <mxCell id="30" value="" style="rounded=0;whiteSpace=wrap;html=1;fontSize=14;container=1;" parent="1" vertex="1">
                    <mxGeometry x="425" y="1115" width="200" height="30" as="geometry"/>
                </mxCell>
                <mxCell id="31" value="Switch between pages" style="text;html=1;strokeColor=none;fillColor=none;align=left;verticalAlign=middle;whiteSpace=wrap;rounded=0;fontSize=14;" parent="30" vertex="1">
                    <mxGeometry x="10" width="180" height="30" as="geometry"/>
                </mxCell>
                <mxCell id="32" style="edgeStyle=none;html=1;exitX=1;exitY=0.5;exitDx=0;exitDy=0;entryX=0;entryY=0.5;entryDx=0;entryDy=0;" parent="1" source="10" target="30" edge="1">
                    <mxGeometry relative="1" as="geometry"/>
                </mxCell>
                <mxCell id="33" value="" style="shape=flexArrow;endArrow=classic;html=1;" parent="1" edge="1">
                    <mxGeometry width="50" height="50" relative="1" as="geometry">
                        <mxPoint x="90" y="960" as="sourcePoint"/>
                        <mxPoint x="90" y="1060" as="targetPoint"/>
                    </mxGeometry>
                </mxCell>
                <mxCell id="34" value="Scrollable" style="text;html=1;strokeColor=none;fillColor=none;align=center;verticalAlign=middle;whiteSpace=wrap;rounded=0;" parent="1" vertex="1">
                    <mxGeometry x="60" y="930" width="60" height="30" as="geometry"/>
                </mxCell>
                <mxCell id="37" value="" style="rounded=0;whiteSpace=wrap;html=1;fontSize=14;container=1;" parent="1" vertex="1">
                    <mxGeometry x="-30" y="695" width="130" height="30" as="geometry"/>
                </mxCell>
                <mxCell id="38" value="Open side panel" style="text;html=1;strokeColor=none;fillColor=none;align=center;verticalAlign=middle;whiteSpace=wrap;rounded=0;fontSize=14;" parent="37" vertex="1">
                    <mxGeometry x="6.5" width="113.5" height="30" as="geometry"/>
                </mxCell>
                <mxCell id="39" style="edgeStyle=none;html=1;exitX=0;exitY=0.5;exitDx=0;exitDy=0;entryX=1;entryY=0.5;entryDx=0;entryDy=0;" parent="1" source="5" target="37" edge="1">
                    <mxGeometry relative="1" as="geometry"/>
                </mxCell>
                <mxCell id="40" value="" style="verticalLabelPosition=bottom;verticalAlign=top;html=1;shadow=0;dashed=0;strokeWidth=1;shape=mxgraph.android.phone2;strokeColor=#c0c0c0;fontSize=14;container=1;recursiveResize=0;" parent="1" vertex="1">
                    <mxGeometry x="120" y="1280" width="280" height="560" as="geometry"/>
                </mxCell>
                <mxCell id="41" value="Favorites page" style="text;html=1;strokeColor=none;fillColor=none;align=center;verticalAlign=middle;whiteSpace=wrap;rounded=0;fontSize=14;" parent="40" vertex="1">
                    <mxGeometry x="80" y="20" width="120" height="30" as="geometry"/>
                </mxCell>
                <mxCell id="42" value="" style="rounded=0;whiteSpace=wrap;html=1;fontSize=14;container=1;" parent="40" vertex="1">
                    <mxGeometry x="10" y="50" width="260" height="40" as="geometry"/>
                </mxCell>
                <mxCell id="43" value="" style="whiteSpace=wrap;html=1;aspect=fixed;fontSize=14;" parent="42" vertex="1">
                    <mxGeometry x="5" y="5" width="30" height="30" as="geometry"/>
                </mxCell>
                <mxCell id="44" value="" style="rounded=0;whiteSpace=wrap;html=1;fontSize=14;container=1;" parent="40" vertex="1">
                    <mxGeometry x="10" y="470" width="60" height="40" as="geometry"/>
                </mxCell>
                <mxCell id="45" value="Home" style="text;html=1;strokeColor=none;fillColor=none;align=center;verticalAlign=middle;whiteSpace=wrap;rounded=0;fontSize=14;" parent="44" vertex="1">
                    <mxGeometry x="18.461538461538463" y="5" width="27.69230769230769" height="30" as="geometry"/>
                </mxCell>
                <mxCell id="46" value="" style="rounded=0;whiteSpace=wrap;html=1;fontSize=14;container=1;" parent="40" vertex="1">
                    <mxGeometry x="220" y="470" width="50" height="40" as="geometry"/>
                </mxCell>
                <mxCell id="47" value="Cart" style="text;html=1;strokeColor=none;fillColor=none;align=center;verticalAlign=middle;whiteSpace=wrap;rounded=0;fontSize=14;movable=1;resizable=1;rotatable=1;deletable=1;editable=1;connectable=1;" parent="46" vertex="1">
                    <mxGeometry x="13.461538461538462" y="5" width="23.076923076923077" height="30" as="geometry"/>
                </mxCell>
                <mxCell id="48" value="" style="rounded=0;whiteSpace=wrap;html=1;fontSize=14;container=1;" parent="40" vertex="1">
                    <mxGeometry x="140" y="470" width="80" height="40" as="geometry"/>
                </mxCell>
                <mxCell id="49" value="" style="rounded=0;whiteSpace=wrap;html=1;fontSize=14;container=1;" parent="40" vertex="1">
                    <mxGeometry x="22.5" y="110" width="235" height="90" as="geometry"/>
                </mxCell>
                <mxCell id="50" value="" style="rounded=0;whiteSpace=wrap;html=1;fontSize=14;container=1;" parent="49" vertex="1">
                    <mxGeometry x="15" y="15" width="65" height="60" as="geometry"/>
                </mxCell>
                <mxCell id="51" value="Image" style="text;html=1;strokeColor=none;fillColor=none;align=center;verticalAlign=middle;whiteSpace=wrap;rounded=0;fontSize=14;" parent="50" vertex="1">
                    <mxGeometry x="5" y="15" width="60" height="30" as="geometry"/>
                </mxCell>
                <mxCell id="52" value="Name" style="text;html=1;strokeColor=none;fillColor=none;align=center;verticalAlign=middle;whiteSpace=wrap;rounded=0;fontSize=14;" parent="49" vertex="1">
                    <mxGeometry x="87.5" y="15" width="60" height="30" as="geometry"/>
                </mxCell>
                <mxCell id="53" value="Price" style="text;html=1;strokeColor=none;fillColor=none;align=center;verticalAlign=middle;whiteSpace=wrap;rounded=0;fontSize=14;" parent="49" vertex="1">
                    <mxGeometry x="90" y="50" width="60" height="30" as="geometry"/>
                </mxCell>
                <mxCell id="72" value="" style="dashed=0;aspect=fixed;verticalLabelPosition=bottom;verticalAlign=top;align=center;shape=mxgraph.gmdl.x;strokeColor=#737373;fillColor=#737373;shadow=0;strokeWidth=2;sketch=0;" parent="49" vertex="1">
                    <mxGeometry x="210.5" y="15" width="16" height="16" as="geometry"/>
                </mxCell>
                <mxCell id="54" value="" style="rounded=0;whiteSpace=wrap;html=1;fontSize=14;container=1;" parent="40" vertex="1">
                    <mxGeometry x="22.5" y="220" width="235" height="90" as="geometry"/>
                </mxCell>
                <mxCell id="55" value="" style="rounded=0;whiteSpace=wrap;html=1;fontSize=14;container=1;" parent="54" vertex="1">
                    <mxGeometry x="15" y="15" width="65" height="60" as="geometry"/>
                </mxCell>
                <mxCell id="56" value="Image" style="text;html=1;strokeColor=none;fillColor=none;align=center;verticalAlign=middle;whiteSpace=wrap;rounded=0;fontSize=14;" parent="55" vertex="1">
                    <mxGeometry x="5" y="15" width="60" height="30" as="geometry"/>
                </mxCell>
                <mxCell id="57" value="Name" style="text;html=1;strokeColor=none;fillColor=none;align=center;verticalAlign=middle;whiteSpace=wrap;rounded=0;fontSize=14;" parent="54" vertex="1">
                    <mxGeometry x="87.5" y="15" width="60" height="30" as="geometry"/>
                </mxCell>
                <mxCell id="58" value="Price" style="text;html=1;strokeColor=none;fillColor=none;align=center;verticalAlign=middle;whiteSpace=wrap;rounded=0;fontSize=14;" parent="54" vertex="1">
                    <mxGeometry x="90" y="50" width="60" height="30" as="geometry"/>
                </mxCell>
                <mxCell id="73" value="" style="dashed=0;aspect=fixed;verticalLabelPosition=bottom;verticalAlign=top;align=center;shape=mxgraph.gmdl.x;strokeColor=#737373;fillColor=#737373;shadow=0;strokeWidth=2;sketch=0;" parent="54" vertex="1">
                    <mxGeometry x="207.5" y="15" width="16" height="16" as="geometry"/>
                </mxCell>
                <mxCell id="59" value="" style="rounded=0;whiteSpace=wrap;html=1;fontSize=14;container=1;" parent="40" vertex="1">
                    <mxGeometry x="22.5" y="330" width="235" height="90" as="geometry"/>
                </mxCell>
                <mxCell id="60" value="" style="rounded=0;whiteSpace=wrap;html=1;fontSize=14;container=1;" parent="59" vertex="1">
                    <mxGeometry x="15" y="15" width="65" height="60" as="geometry"/>
                </mxCell>
                <mxCell id="61" value="Image" style="text;html=1;strokeColor=none;fillColor=none;align=center;verticalAlign=middle;whiteSpace=wrap;rounded=0;fontSize=14;" parent="60" vertex="1">
                    <mxGeometry x="5" y="15" width="60" height="30" as="geometry"/>
                </mxCell>
                <mxCell id="62" value="Name" style="text;html=1;strokeColor=none;fillColor=none;align=center;verticalAlign=middle;whiteSpace=wrap;rounded=0;fontSize=14;" parent="59" vertex="1">
                    <mxGeometry x="87.5" y="15" width="60" height="30" as="geometry"/>
                </mxCell>
                <mxCell id="63" value="Price" style="text;html=1;strokeColor=none;fillColor=none;align=center;verticalAlign=middle;whiteSpace=wrap;rounded=0;fontSize=14;" parent="59" vertex="1">
                    <mxGeometry x="90" y="50" width="60" height="30" as="geometry"/>
                </mxCell>
                <mxCell id="74" value="" style="dashed=0;aspect=fixed;verticalLabelPosition=bottom;verticalAlign=top;align=center;shape=mxgraph.gmdl.x;strokeColor=#737373;fillColor=#737373;shadow=0;strokeWidth=2;sketch=0;" parent="59" vertex="1">
                    <mxGeometry x="207.5" y="15" width="16" height="16" as="geometry"/>
                </mxCell>
                <mxCell id="64" value="&lt;u&gt;&lt;b&gt;Favorites&lt;/b&gt;&lt;/u&gt;" style="text;html=1;strokeColor=none;fillColor=none;align=center;verticalAlign=middle;whiteSpace=wrap;rounded=0;fontSize=14;" parent="40" vertex="1">
                    <mxGeometry x="150" y="470" width="70" height="35" as="geometry"/>
                </mxCell>
                <mxCell id="65" value="Lucky wheel" style="rounded=0;whiteSpace=wrap;html=1;" parent="40" vertex="1">
                    <mxGeometry x="70" y="470" width="80" height="40" as="geometry"/>
                </mxCell>
                <mxCell id="66" value="" style="rounded=0;whiteSpace=wrap;html=1;fontSize=14;container=1;" parent="1" vertex="1">
                    <mxGeometry x="425" y="1755" width="200" height="30" as="geometry"/>
                </mxCell>
                <mxCell id="67" value="Switch between pages" style="text;html=1;strokeColor=none;fillColor=none;align=left;verticalAlign=middle;whiteSpace=wrap;rounded=0;fontSize=14;" parent="66" vertex="1">
                    <mxGeometry x="10" width="180" height="30" as="geometry"/>
                </mxCell>
                <mxCell id="68" style="edgeStyle=none;html=1;exitX=1;exitY=0.5;exitDx=0;exitDy=0;entryX=0;entryY=0.5;entryDx=0;entryDy=0;" parent="1" source="46" target="66" edge="1">
                    <mxGeometry relative="1" as="geometry"/>
                </mxCell>
                <mxCell id="69" value="" style="rounded=0;whiteSpace=wrap;html=1;fontSize=14;container=1;" parent="1" vertex="1">
                    <mxGeometry x="425" y="1420" width="200" height="30" as="geometry"/>
                </mxCell>
                <mxCell id="70" value="Go to info page for this item" style="text;html=1;strokeColor=none;fillColor=none;align=left;verticalAlign=middle;whiteSpace=wrap;rounded=0;fontSize=14;" parent="69" vertex="1">
                    <mxGeometry x="10" width="180" height="30" as="geometry"/>
                </mxCell>
                <mxCell id="71" style="edgeStyle=none;html=1;exitX=1;exitY=0.5;exitDx=0;exitDy=0;entryX=0;entryY=0.5;entryDx=0;entryDy=0;" parent="1" source="49" target="69" edge="1">
                    <mxGeometry relative="1" as="geometry"/>
                </mxCell>
                <mxCell id="75" value="" style="rounded=0;whiteSpace=wrap;html=1;fontSize=14;container=1;" parent="1" vertex="1">
                    <mxGeometry x="425" y="1508" width="200" height="30" as="geometry"/>
                </mxCell>
                <mxCell id="76" value="Unfavorite this item" style="text;html=1;strokeColor=none;fillColor=none;align=left;verticalAlign=middle;whiteSpace=wrap;rounded=0;fontSize=14;" parent="75" vertex="1">
                    <mxGeometry x="10" width="180" height="30" as="geometry"/>
                </mxCell>
                <mxCell id="77" value="" style="endArrow=classic;html=1;entryX=0;entryY=0.5;entryDx=0;entryDy=0;exitX=0.625;exitY=0.5;exitDx=0;exitDy=0;exitPerimeter=0;" parent="1" source="73" target="75" edge="1">
                    <mxGeometry width="50" height="50" relative="1" as="geometry">
                        <mxPoint x="350" y="1550" as="sourcePoint"/>
                        <mxPoint x="400" y="1500" as="targetPoint"/>
                    </mxGeometry>
                </mxCell>
                <mxCell id="80" value="" style="shape=flexArrow;endArrow=classic;html=1;" parent="1" edge="1">
                    <mxGeometry width="50" height="50" relative="1" as="geometry">
                        <mxPoint x="90" y="1600" as="sourcePoint"/>
                        <mxPoint x="90" y="1700" as="targetPoint"/>
                    </mxGeometry>
                </mxCell>
                <mxCell id="81" value="Scrollable" style="text;html=1;strokeColor=none;fillColor=none;align=center;verticalAlign=middle;whiteSpace=wrap;rounded=0;" parent="1" vertex="1">
                    <mxGeometry x="60" y="1570" width="60" height="30" as="geometry"/>
                </mxCell>
                <mxCell id="82" value="" style="rounded=0;whiteSpace=wrap;html=1;fontSize=14;container=1;" parent="1" vertex="1">
                    <mxGeometry x="-30" y="1335" width="130" height="30" as="geometry"/>
                </mxCell>
                <mxCell id="83" value="Open side panel" style="text;html=1;strokeColor=none;fillColor=none;align=center;verticalAlign=middle;whiteSpace=wrap;rounded=0;fontSize=14;" parent="82" vertex="1">
                    <mxGeometry x="6.5" width="113.5" height="30" as="geometry"/>
                </mxCell>
                <mxCell id="84" style="edgeStyle=none;html=1;exitX=0;exitY=0.5;exitDx=0;exitDy=0;entryX=1;entryY=0.5;entryDx=0;entryDy=0;" parent="1" source="43" target="82" edge="1">
                    <mxGeometry relative="1" as="geometry"/>
                </mxCell>
                <mxCell id="85" value="" style="verticalLabelPosition=bottom;verticalAlign=top;html=1;shadow=0;dashed=0;strokeWidth=1;shape=mxgraph.android.phone2;strokeColor=#c0c0c0;fontSize=14;container=1;recursiveResize=0;" parent="1" vertex="1">
                    <mxGeometry x="120" y="1920" width="280" height="560" as="geometry"/>
                </mxCell>
                <mxCell id="86" value="Cart page" style="text;html=1;strokeColor=none;fillColor=none;align=center;verticalAlign=middle;whiteSpace=wrap;rounded=0;fontSize=14;" parent="85" vertex="1">
                    <mxGeometry x="80" y="20" width="120" height="30" as="geometry"/>
                </mxCell>
                <mxCell id="87" value="" style="rounded=0;whiteSpace=wrap;html=1;fontSize=14;container=1;" parent="85" vertex="1">
                    <mxGeometry x="10" y="50" width="260" height="40" as="geometry"/>
                </mxCell>
                <mxCell id="88" value="" style="whiteSpace=wrap;html=1;aspect=fixed;fontSize=14;" parent="87" vertex="1">
                    <mxGeometry x="5" y="5" width="30" height="30" as="geometry"/>
                </mxCell>
                <mxCell id="89" value="x items" style="text;html=1;strokeColor=none;fillColor=none;align=center;verticalAlign=middle;whiteSpace=wrap;rounded=0;fontSize=14;" parent="85" vertex="1">
                    <mxGeometry x="20" y="110" width="60" height="30" as="geometry"/>
                </mxCell>
                <mxCell id="90" value="" style="rounded=0;whiteSpace=wrap;html=1;fontSize=14;container=1;" parent="85" vertex="1">
                    <mxGeometry x="25" y="150" width="235" height="90" as="geometry"/>
                </mxCell>
                <mxCell id="91" value="" style="rounded=0;whiteSpace=wrap;html=1;fontSize=14;container=1;" parent="90" vertex="1">
                    <mxGeometry x="15" y="15" width="65" height="60" as="geometry"/>
                </mxCell>
                <mxCell id="92" value="Image" style="text;html=1;strokeColor=none;fillColor=none;align=center;verticalAlign=middle;whiteSpace=wrap;rounded=0;fontSize=14;" parent="91" vertex="1">
                    <mxGeometry x="5" y="15" width="60" height="30" as="geometry"/>
                </mxCell>
                <mxCell id="93" value="Name" style="text;html=1;strokeColor=none;fillColor=none;align=center;verticalAlign=middle;whiteSpace=wrap;rounded=0;fontSize=14;" parent="90" vertex="1">
                    <mxGeometry x="87.5" y="15" width="60" height="30" as="geometry"/>
                </mxCell>
                <mxCell id="94" value="Price" style="text;html=1;strokeColor=none;fillColor=none;align=center;verticalAlign=middle;whiteSpace=wrap;rounded=0;fontSize=14;" parent="90" vertex="1">
                    <mxGeometry x="90" y="50" width="60" height="30" as="geometry"/>
                </mxCell>
                <mxCell id="95" value="" style="rounded=0;whiteSpace=wrap;html=1;fontSize=14;container=1;" parent="85" vertex="1">
                    <mxGeometry x="25" y="260" width="235" height="90" as="geometry"/>
                </mxCell>
                <mxCell id="96" value="" style="rounded=0;whiteSpace=wrap;html=1;fontSize=14;container=1;" parent="95" vertex="1">
                    <mxGeometry x="15" y="15" width="65" height="60" as="geometry"/>
                </mxCell>
                <mxCell id="97" value="Image" style="text;html=1;strokeColor=none;fillColor=none;align=center;verticalAlign=middle;whiteSpace=wrap;rounded=0;fontSize=14;" parent="96" vertex="1">
                    <mxGeometry x="5" y="15" width="60" height="30" as="geometry"/>
                </mxCell>
                <mxCell id="98" value="Name" style="text;html=1;strokeColor=none;fillColor=none;align=center;verticalAlign=middle;whiteSpace=wrap;rounded=0;fontSize=14;" parent="95" vertex="1">
                    <mxGeometry x="87.5" y="15" width="60" height="30" as="geometry"/>
                </mxCell>
                <mxCell id="99" value="Price" style="text;html=1;strokeColor=none;fillColor=none;align=center;verticalAlign=middle;whiteSpace=wrap;rounded=0;fontSize=14;" parent="95" vertex="1">
                    <mxGeometry x="90" y="50" width="60" height="30" as="geometry"/>
                </mxCell>
                <mxCell id="100" value="" style="rounded=0;whiteSpace=wrap;html=1;fontSize=14;container=1;" parent="85" vertex="1">
                    <mxGeometry x="25" y="370" width="235" height="90" as="geometry"/>
                </mxCell>
                <mxCell id="101" value="" style="rounded=0;whiteSpace=wrap;html=1;fontSize=14;container=1;" parent="100" vertex="1">
                    <mxGeometry x="15" y="15" width="65" height="60" as="geometry"/>
                </mxCell>
                <mxCell id="102" value="Image" style="text;html=1;strokeColor=none;fillColor=none;align=center;verticalAlign=middle;whiteSpace=wrap;rounded=0;fontSize=14;" parent="101" vertex="1">
                    <mxGeometry x="5" y="15" width="60" height="30" as="geometry"/>
                </mxCell>
                <mxCell id="103" value="Name" style="text;html=1;strokeColor=none;fillColor=none;align=center;verticalAlign=middle;whiteSpace=wrap;rounded=0;fontSize=14;" parent="100" vertex="1">
                    <mxGeometry x="87.5" y="15" width="60" height="30" as="geometry"/>
                </mxCell>
                <mxCell id="104" value="Price" style="text;html=1;strokeColor=none;fillColor=none;align=center;verticalAlign=middle;whiteSpace=wrap;rounded=0;fontSize=14;" parent="100" vertex="1">
                    <mxGeometry x="90" y="50" width="60" height="30" as="geometry"/>
                </mxCell>
                <mxCell id="105" value="" style="rounded=0;whiteSpace=wrap;html=1;fontSize=14;container=1;" parent="85" vertex="1">
                    <mxGeometry x="12.5" y="470" width="60" height="40" as="geometry"/>
                </mxCell>
                <mxCell id="106" value="Home" style="text;html=1;strokeColor=none;fillColor=none;align=center;verticalAlign=middle;whiteSpace=wrap;rounded=0;fontSize=14;" parent="105" vertex="1">
                    <mxGeometry x="18.461538461538463" y="5" width="27.692307692307686" height="30" as="geometry"/>
                </mxCell>
                <mxCell id="107" value="" style="rounded=0;whiteSpace=wrap;html=1;fontSize=14;container=1;" parent="85" vertex="1">
                    <mxGeometry x="212.5" y="470" width="60" height="40" as="geometry"/>
                </mxCell>
                <mxCell id="108" value="&lt;b&gt;&lt;u&gt;Cart&lt;/u&gt;&lt;/b&gt;" style="text;html=1;strokeColor=none;fillColor=none;align=center;verticalAlign=middle;whiteSpace=wrap;rounded=0;fontSize=14;movable=1;resizable=1;rotatable=1;deletable=1;editable=1;connectable=1;" parent="107" vertex="1">
                    <mxGeometry x="19.999999999999996" y="5" width="23.846666666666668" height="30" as="geometry"/>
                </mxCell>
                <mxCell id="109" value="" style="rounded=0;whiteSpace=wrap;html=1;fontSize=14;container=1;" parent="85" vertex="1">
                    <mxGeometry x="142.5" y="470" width="70" height="40" as="geometry"/>
                </mxCell>
                <mxCell id="110" value="Favorites" style="text;html=1;strokeColor=none;fillColor=none;align=center;verticalAlign=middle;whiteSpace=wrap;rounded=0;fontSize=14;movable=0;resizable=0;rotatable=0;deletable=0;editable=0;connectable=0;" parent="109" vertex="1">
                    <mxGeometry x="10" y="5" width="60" height="30" as="geometry"/>
                </mxCell>
                <mxCell id="111" value="Lucky wheel" style="rounded=0;whiteSpace=wrap;html=1;container=1;" parent="85" vertex="1">
                    <mxGeometry x="72.5" y="470" width="70" height="40" as="geometry"/>
                </mxCell>
                <mxCell id="112" value="" style="rounded=0;whiteSpace=wrap;html=1;fontSize=14;container=1;" parent="85" vertex="1">
                    <mxGeometry x="160" y="105" width="100" height="30" as="geometry"/>
                </mxCell>
                <mxCell id="113" value="Purchase" style="text;html=1;strokeColor=none;fillColor=none;align=center;verticalAlign=middle;whiteSpace=wrap;rounded=0;fontSize=14;" parent="112" vertex="1">
                    <mxGeometry x="5" width="90" height="30" as="geometry"/>
                </mxCell>
                <mxCell id="114" value="" style="shape=flexArrow;endArrow=classic;html=1;" parent="1" edge="1">
                    <mxGeometry width="50" height="50" relative="1" as="geometry">
                        <mxPoint x="90" y="2240" as="sourcePoint"/>
                        <mxPoint x="90" y="2340" as="targetPoint"/>
                    </mxGeometry>
                </mxCell>
                <mxCell id="115" value="Scrollable" style="text;html=1;strokeColor=none;fillColor=none;align=center;verticalAlign=middle;whiteSpace=wrap;rounded=0;" parent="1" vertex="1">
                    <mxGeometry x="60" y="2210" width="60" height="30" as="geometry"/>
                </mxCell>
                <mxCell id="116" value="" style="rounded=0;whiteSpace=wrap;html=1;fontSize=14;container=1;" parent="1" vertex="1">
                    <mxGeometry x="-30" y="1975" width="130" height="30" as="geometry"/>
                </mxCell>
                <mxCell id="117" value="Open side panel" style="text;html=1;strokeColor=none;fillColor=none;align=center;verticalAlign=middle;whiteSpace=wrap;rounded=0;fontSize=14;" parent="116" vertex="1">
                    <mxGeometry x="6.5" width="113.5" height="30" as="geometry"/>
                </mxCell>
                <mxCell id="118" style="edgeStyle=none;html=1;exitX=0;exitY=0.5;exitDx=0;exitDy=0;entryX=1;entryY=0.5;entryDx=0;entryDy=0;" parent="1" source="88" target="116" edge="1">
                    <mxGeometry relative="1" as="geometry"/>
                </mxCell>
                <mxCell id="119" value="" style="rounded=0;whiteSpace=wrap;html=1;fontSize=14;container=1;" parent="1" vertex="1">
                    <mxGeometry x="425" y="2025" width="200" height="30" as="geometry"/>
                </mxCell>
                <mxCell id="120" value="Go to checkout page" style="text;html=1;strokeColor=none;fillColor=none;align=left;verticalAlign=middle;whiteSpace=wrap;rounded=0;fontSize=14;" parent="119" vertex="1">
                    <mxGeometry x="10" width="180" height="30" as="geometry"/>
                </mxCell>
                <mxCell id="121" value="" style="verticalLabelPosition=bottom;verticalAlign=top;html=1;shadow=0;dashed=0;strokeWidth=1;shape=mxgraph.android.phone2;strokeColor=#c0c0c0;fontSize=14;container=1;recursiveResize=0;" parent="1" vertex="1">
                    <mxGeometry x="680" y="1920" width="280" height="560" as="geometry"/>
                </mxCell>
                <mxCell id="122" value="Order confirm page" style="text;html=1;strokeColor=none;fillColor=none;align=center;verticalAlign=middle;whiteSpace=wrap;rounded=0;fontSize=14;" parent="121" vertex="1">
                    <mxGeometry x="60" y="20" width="160" height="30" as="geometry"/>
                </mxCell>
                <mxCell id="123" value="" style="rounded=0;whiteSpace=wrap;html=1;fontSize=14;container=1;" parent="121" vertex="1">
                    <mxGeometry x="10" y="45" width="260" height="40" as="geometry"/>
                </mxCell>
                <mxCell id="124" value="" style="triangle;whiteSpace=wrap;html=1;fontSize=14;direction=west;" parent="123" vertex="1">
                    <mxGeometry x="10" y="10" width="20" height="20" as="geometry"/>
                </mxCell>
                <mxCell id="125" value="" style="rounded=0;whiteSpace=wrap;html=1;fontSize=14;container=1;" parent="121" vertex="1">
                    <mxGeometry x="100" y="460" width="80" height="30" as="geometry"/>
                </mxCell>
                <mxCell id="126" value="Confirm" style="text;html=1;strokeColor=none;fillColor=none;align=center;verticalAlign=middle;whiteSpace=wrap;rounded=0;fontSize=14;" parent="125" vertex="1">
                    <mxGeometry x="4" width="71.99999999999999" height="30" as="geometry"/>
                </mxCell>
                <mxCell id="127" value="&lt;font style=&quot;font-size: 24px;&quot;&gt;Bill info&lt;/font&gt;" style="text;html=1;strokeColor=none;fillColor=none;align=center;verticalAlign=middle;whiteSpace=wrap;rounded=0;" parent="121" vertex="1">
                    <mxGeometry x="40" y="120" width="200" height="200" as="geometry"/>
                </mxCell>
                <mxCell id="131" style="edgeStyle=none;html=1;exitX=1;exitY=0.5;exitDx=0;exitDy=0;entryX=0;entryY=0.5;entryDx=0;entryDy=0;" parent="1" source="112" target="119" edge="1">
                    <mxGeometry relative="1" as="geometry"/>
                </mxCell>
                <mxCell id="132" value="" style="rounded=0;whiteSpace=wrap;html=1;fontSize=14;container=1;" parent="1" vertex="1">
                    <mxGeometry x="480" y="2380" width="170" height="30" as="geometry"/>
                </mxCell>
                <mxCell id="133" value="Save order to database" style="text;html=1;strokeColor=none;fillColor=none;align=left;verticalAlign=middle;whiteSpace=wrap;rounded=0;fontSize=14;" parent="132" vertex="1">
                    <mxGeometry x="10" width="151.5" height="30" as="geometry"/>
                </mxCell>
                <mxCell id="134" style="edgeStyle=none;html=1;exitX=0;exitY=0.5;exitDx=0;exitDy=0;entryX=1;entryY=0.5;entryDx=0;entryDy=0;" parent="1" source="125" target="132" edge="1">
                    <mxGeometry relative="1" as="geometry"/>
                </mxCell>
                <mxCell id="135" value="" style="verticalLabelPosition=bottom;verticalAlign=top;html=1;shadow=0;dashed=0;strokeWidth=1;shape=mxgraph.android.phone2;strokeColor=#c0c0c0;fontSize=14;container=1;recursiveResize=0;" parent="1" vertex="1">
                    <mxGeometry x="120" y="2560" width="280" height="560" as="geometry"/>
                </mxCell>
                <mxCell id="136" value="Sidebar" style="text;html=1;strokeColor=none;fillColor=none;align=center;verticalAlign=middle;whiteSpace=wrap;rounded=0;fontSize=14;" parent="135" vertex="1">
                    <mxGeometry x="80" y="20" width="120" height="30" as="geometry"/>
                </mxCell>
                <mxCell id="137" value="" style="rounded=0;whiteSpace=wrap;html=1;fontSize=14;container=1;" parent="135" vertex="1">
                    <mxGeometry x="10" y="50" width="260" height="40" as="geometry"/>
                </mxCell>
                <mxCell id="138" value="" style="whiteSpace=wrap;html=1;aspect=fixed;fontSize=14;" parent="137" vertex="1">
                    <mxGeometry x="5" y="5" width="30" height="30" as="geometry"/>
                </mxCell>
                <mxCell id="139" value="" style="rounded=0;whiteSpace=wrap;html=1;fontSize=14;container=1;" parent="135" vertex="1">
                    <mxGeometry x="10" y="90" width="190" height="420" as="geometry"/>
                </mxCell>
                <mxCell id="140" value="" style="rounded=0;whiteSpace=wrap;html=1;fontSize=14;container=1;" parent="139" vertex="1">
                    <mxGeometry width="190" height="60" as="geometry"/>
                </mxCell>
                <mxCell id="141" value="" style="ellipse;whiteSpace=wrap;html=1;aspect=fixed;fontSize=14;container=1;" parent="140" vertex="1">
                    <mxGeometry x="7.5" y="7.5" width="45" height="45" as="geometry"/>
                </mxCell>
                <mxCell id="142" value="&lt;font style=&quot;font-size: 10px;&quot;&gt;Avatar&lt;/font&gt;" style="text;html=1;strokeColor=none;fillColor=none;align=center;verticalAlign=middle;whiteSpace=wrap;rounded=0;fontSize=14;" parent="140" vertex="1">
                    <mxGeometry y="15" width="60" height="30" as="geometry"/>
                </mxCell>
                <mxCell id="143" value="&lt;span style=&quot;font-size: 12px;&quot;&gt;Username&lt;/span&gt;" style="text;html=1;strokeColor=none;fillColor=none;align=left;verticalAlign=middle;whiteSpace=wrap;rounded=0;fontSize=10;" parent="140" vertex="1">
                    <mxGeometry x="70" y="5" width="60" height="30" as="geometry"/>
                </mxCell>
                <mxCell id="144" value="Email" style="text;html=1;strokeColor=none;fillColor=none;align=left;verticalAlign=middle;whiteSpace=wrap;rounded=0;fontSize=12;" parent="140" vertex="1">
                    <mxGeometry x="70" y="30" width="60" height="30" as="geometry"/>
                </mxCell>
                <mxCell id="145" value="" style="rounded=0;whiteSpace=wrap;html=1;fontSize=12;container=1;" parent="139" vertex="1">
                    <mxGeometry y="60" width="190" height="40" as="geometry"/>
                </mxCell>
                <mxCell id="146" value="&lt;font style=&quot;font-size: 14px;&quot;&gt;Settings&lt;/font&gt;" style="text;html=1;strokeColor=none;fillColor=none;align=left;verticalAlign=middle;whiteSpace=wrap;rounded=0;fontSize=12;" parent="145" vertex="1">
                    <mxGeometry x="10" y="5" width="60" height="30" as="geometry"/>
                </mxCell>
                <mxCell id="147" value="" style="rounded=0;whiteSpace=wrap;html=1;fontSize=12;container=1;" parent="139" vertex="1">
                    <mxGeometry y="100" width="190" height="40" as="geometry"/>
                </mxCell>
                <mxCell id="148" value="&lt;font style=&quot;font-size: 14px;&quot;&gt;About&lt;/font&gt;" style="text;html=1;strokeColor=none;fillColor=none;align=left;verticalAlign=middle;whiteSpace=wrap;rounded=0;fontSize=12;" parent="147" vertex="1">
                    <mxGeometry x="10" y="5" width="60" height="30" as="geometry"/>
                </mxCell>
                <mxCell id="149" value="" style="rounded=0;whiteSpace=wrap;html=1;fontSize=12;container=1;" parent="139" vertex="1">
                    <mxGeometry y="140" width="190" height="40" as="geometry"/>
                </mxCell>
                <mxCell id="150" value="&lt;font style=&quot;font-size: 14px;&quot;&gt;Logout&lt;/font&gt;" style="text;html=1;strokeColor=none;fillColor=none;align=left;verticalAlign=middle;whiteSpace=wrap;rounded=0;fontSize=12;" parent="149" vertex="1">
                    <mxGeometry x="10" y="5" width="60" height="30" as="geometry"/>
                </mxCell>
                <mxCell id="151" value="" style="rounded=0;whiteSpace=wrap;html=1;fontSize=14;container=1;" parent="1" vertex="1">
                    <mxGeometry x="-120" y="2665" width="200" height="30" as="geometry"/>
                </mxCell>
                <mxCell id="152" value="Go to user info page" style="text;html=1;strokeColor=none;fillColor=none;align=left;verticalAlign=middle;whiteSpace=wrap;rounded=0;fontSize=14;" parent="151" vertex="1">
                    <mxGeometry x="10" width="180" height="30" as="geometry"/>
                </mxCell>
                <mxCell id="153" value="" style="rounded=0;whiteSpace=wrap;html=1;fontSize=14;container=1;" parent="1" vertex="1">
                    <mxGeometry x="-120" y="2715" width="200" height="30" as="geometry"/>
                </mxCell>
                <mxCell id="154" value="Go to settings page" style="text;html=1;strokeColor=none;fillColor=none;align=left;verticalAlign=middle;whiteSpace=wrap;rounded=0;fontSize=14;" parent="153" vertex="1">
                    <mxGeometry x="10" width="180" height="30" as="geometry"/>
                </mxCell>
                <mxCell id="155" value="" style="rounded=0;whiteSpace=wrap;html=1;fontSize=14;container=1;" parent="1" vertex="1">
                    <mxGeometry x="-120" y="2755" width="200" height="30" as="geometry"/>
                </mxCell>
                <mxCell id="156" value="Go to app info page" style="text;html=1;strokeColor=none;fillColor=none;align=left;verticalAlign=middle;whiteSpace=wrap;rounded=0;fontSize=14;" parent="155" vertex="1">
                    <mxGeometry x="10" width="180" height="30" as="geometry"/>
                </mxCell>
                <mxCell id="157" value="" style="rounded=0;whiteSpace=wrap;html=1;fontSize=14;container=1;" parent="1" vertex="1">
                    <mxGeometry x="-120" y="2795" width="200" height="30" as="geometry"/>
                </mxCell>
                <mxCell id="158" value="Log out and go to login page" style="text;html=1;strokeColor=none;fillColor=none;align=left;verticalAlign=middle;whiteSpace=wrap;rounded=0;fontSize=14;" parent="157" vertex="1">
                    <mxGeometry x="10" width="180" height="30" as="geometry"/>
                </mxCell>
                <mxCell id="159" style="edgeStyle=none;html=1;exitX=0;exitY=0.5;exitDx=0;exitDy=0;entryX=1;entryY=0.5;entryDx=0;entryDy=0;" parent="1" source="149" target="157" edge="1">
                    <mxGeometry relative="1" as="geometry"/>
                </mxCell>
                <mxCell id="160" style="edgeStyle=none;html=1;exitX=0;exitY=0.5;exitDx=0;exitDy=0;entryX=1;entryY=0.5;entryDx=0;entryDy=0;" parent="1" source="142" target="151" edge="1">
                    <mxGeometry relative="1" as="geometry"/>
                </mxCell>
                <mxCell id="161" style="edgeStyle=none;html=1;exitX=0;exitY=0.5;exitDx=0;exitDy=0;entryX=1;entryY=0.5;entryDx=0;entryDy=0;" parent="1" source="145" target="153" edge="1">
                    <mxGeometry relative="1" as="geometry"/>
                </mxCell>
                <mxCell id="162" style="edgeStyle=none;html=1;exitX=0;exitY=0.5;exitDx=0;exitDy=0;entryX=1;entryY=0.5;entryDx=0;entryDy=0;" parent="1" source="147" target="155" edge="1">
                    <mxGeometry relative="1" as="geometry"/>
                </mxCell>
                <mxCell id="163" value="" style="rounded=0;whiteSpace=wrap;html=1;fontSize=14;container=1;" parent="1" vertex="1">
                    <mxGeometry x="-50" y="2615" width="130" height="30" as="geometry"/>
                </mxCell>
                <mxCell id="164" value="Close side panel" style="text;html=1;strokeColor=none;fillColor=none;align=center;verticalAlign=middle;whiteSpace=wrap;rounded=0;fontSize=14;" parent="163" vertex="1">
                    <mxGeometry x="6.5" width="113.5" height="30" as="geometry"/>
                </mxCell>
                <mxCell id="165" style="edgeStyle=none;html=1;exitX=0;exitY=0.5;exitDx=0;exitDy=0;entryX=1;entryY=0.5;entryDx=0;entryDy=0;" parent="1" source="138" target="163" edge="1">
                    <mxGeometry relative="1" as="geometry"/>
                </mxCell>
                <mxCell id="166" value="" style="verticalLabelPosition=bottom;verticalAlign=top;html=1;shadow=0;dashed=0;strokeWidth=1;shape=mxgraph.android.phone2;strokeColor=#c0c0c0;fontSize=14;container=1;recursiveResize=0;" parent="1" vertex="1">
                    <mxGeometry x="680" y="2560" width="280" height="560" as="geometry"/>
                </mxCell>
                <mxCell id="167" value="User profile" style="text;html=1;strokeColor=none;fillColor=none;align=center;verticalAlign=middle;whiteSpace=wrap;rounded=0;fontSize=14;" parent="166" vertex="1">
                    <mxGeometry x="80" y="20" width="120" height="30" as="geometry"/>
                </mxCell>
                <mxCell id="168" value="" style="rounded=0;whiteSpace=wrap;html=1;fontSize=14;container=1;" parent="166" vertex="1">
                    <mxGeometry x="10" y="50" width="260" height="40" as="geometry"/>
                </mxCell>
                <mxCell id="169" value="" style="triangle;whiteSpace=wrap;html=1;fontSize=14;direction=west;" parent="168" vertex="1">
                    <mxGeometry x="10" y="10" width="20" height="20" as="geometry"/>
                </mxCell>
                <mxCell id="170" value="" style="rounded=0;whiteSpace=wrap;html=1;container=1;" parent="166" vertex="1">
                    <mxGeometry x="160" y="450" width="80" height="30" as="geometry"/>
                </mxCell>
                <mxCell id="171" value="Edit" style="text;html=1;strokeColor=none;fillColor=none;align=center;verticalAlign=middle;whiteSpace=wrap;rounded=0;" parent="170" vertex="1">
                    <mxGeometry x="10" width="60" height="30" as="geometry"/>
                </mxCell>
                <mxCell id="172" value="" style="ellipse;whiteSpace=wrap;html=1;aspect=fixed;container=1;" parent="166" vertex="1">
                    <mxGeometry x="100" y="120" width="80" height="80" as="geometry"/>
                </mxCell>
                <mxCell id="173" value="Avatar" style="text;html=1;strokeColor=none;fillColor=none;align=center;verticalAlign=middle;whiteSpace=wrap;rounded=0;" parent="172" vertex="1">
                    <mxGeometry x="10" y="25" width="60" height="30" as="geometry"/>
                </mxCell>
                <mxCell id="174" value="Username" style="text;html=1;strokeColor=none;fillColor=none;align=center;verticalAlign=middle;whiteSpace=wrap;rounded=0;" parent="166" vertex="1">
                    <mxGeometry x="110" y="225" width="60" height="30" as="geometry"/>
                </mxCell>
                <mxCell id="175" value="Email" style="text;html=1;strokeColor=none;fillColor=none;align=center;verticalAlign=middle;whiteSpace=wrap;rounded=0;" parent="166" vertex="1">
                    <mxGeometry x="110" y="260" width="60" height="30" as="geometry"/>
                </mxCell>
                <mxCell id="176" value="Address&lt;br&gt;" style="text;html=1;strokeColor=none;fillColor=none;align=center;verticalAlign=middle;whiteSpace=wrap;rounded=0;" parent="166" vertex="1">
                    <mxGeometry x="110" y="300" width="60" height="30" as="geometry"/>
                </mxCell>
                <mxCell id="177" value="Phone number" style="text;html=1;strokeColor=none;fillColor=none;align=center;verticalAlign=middle;whiteSpace=wrap;rounded=0;" parent="166" vertex="1">
                    <mxGeometry x="80" y="340" width="120" height="30" as="geometry"/>
                </mxCell>
                <mxCell id="178" value="" style="rounded=0;whiteSpace=wrap;html=1;fontSize=14;container=1;" parent="1" vertex="1">
                    <mxGeometry x="980" y="3010" width="200" height="30" as="geometry"/>
                </mxCell>
                <mxCell id="179" value="Go to edit user info page" style="text;html=1;strokeColor=none;fillColor=none;align=left;verticalAlign=middle;whiteSpace=wrap;rounded=0;fontSize=14;" parent="178" vertex="1">
                    <mxGeometry x="11.764705882352942" width="178.23529411764707" height="30" as="geometry"/>
                </mxCell>
                <mxCell id="180" style="edgeStyle=none;html=1;exitX=1;exitY=0.5;exitDx=0;exitDy=0;entryX=0;entryY=0.5;entryDx=0;entryDy=0;" parent="1" source="170" target="178" edge="1">
                    <mxGeometry relative="1" as="geometry"/>
                </mxCell>
                <mxCell id="181" value="" style="rounded=0;whiteSpace=wrap;html=1;fontSize=14;container=1;" parent="1" vertex="1">
                    <mxGeometry x="420" y="2705" width="230" height="30" as="geometry"/>
                </mxCell>
                <mxCell id="182" value="Show bigger version of avatar" style="text;html=1;strokeColor=none;fillColor=none;align=left;verticalAlign=middle;whiteSpace=wrap;rounded=0;fontSize=14;" parent="181" vertex="1">
                    <mxGeometry x="13.529411764705884" width="204.97058823529414" height="30" as="geometry"/>
                </mxCell>
                <mxCell id="183" style="edgeStyle=none;html=1;exitX=0;exitY=0.5;exitDx=0;exitDy=0;entryX=1;entryY=0.5;entryDx=0;entryDy=0;" parent="1" source="172" target="181" edge="1">
                    <mxGeometry relative="1" as="geometry"/>
                </mxCell>
                <mxCell id="184" value="" style="verticalLabelPosition=bottom;verticalAlign=top;html=1;shadow=0;dashed=0;strokeWidth=1;shape=mxgraph.android.phone2;strokeColor=#c0c0c0;fontSize=14;container=1;recursiveResize=0;" parent="1" vertex="1">
                    <mxGeometry x="680" y="640" width="280" height="560" as="geometry"/>
                </mxCell>
                <mxCell id="185" value="Item info page" style="text;html=1;strokeColor=none;fillColor=none;align=center;verticalAlign=middle;whiteSpace=wrap;rounded=0;fontSize=14;" parent="184" vertex="1">
                    <mxGeometry x="80" y="20" width="120" height="30" as="geometry"/>
                </mxCell>
                <mxCell id="189" value="" style="rounded=0;whiteSpace=wrap;html=1;" parent="184" vertex="1">
                    <mxGeometry x="30" y="120" width="220" height="120" as="geometry"/>
                </mxCell>
                <mxCell id="190" value="&lt;font style=&quot;font-size: 24px;&quot;&gt;Images&lt;/font&gt;" style="text;html=1;strokeColor=none;fillColor=none;align=center;verticalAlign=middle;whiteSpace=wrap;rounded=0;" parent="184" vertex="1">
                    <mxGeometry x="50" y="140" width="180" height="80" as="geometry"/>
                </mxCell>
                <mxCell id="191" value="&lt;font style=&quot;font-size: 18px;&quot;&gt;Name&lt;/font&gt;" style="text;html=1;strokeColor=none;fillColor=none;align=left;verticalAlign=middle;whiteSpace=wrap;rounded=0;fontSize=24;" parent="184" vertex="1">
                    <mxGeometry x="30" y="250" width="220" height="30" as="geometry"/>
                </mxCell>
                <mxCell id="192" value="&lt;div style=&quot;&quot;&gt;&lt;span style=&quot;font-size: 14px; background-color: initial;&quot;&gt;Description&lt;/span&gt;&lt;/div&gt;" style="text;html=1;strokeColor=none;fillColor=none;align=left;verticalAlign=middle;whiteSpace=wrap;rounded=0;fontSize=18;" parent="184" vertex="1">
                    <mxGeometry x="29" y="290" width="221" height="20" as="geometry"/>
                </mxCell>
                <mxCell id="193" value="" style="rounded=0;whiteSpace=wrap;html=1;fontSize=14;container=1;" parent="184" vertex="1">
                    <mxGeometry x="29" y="360" width="41" height="40" as="geometry"/>
                </mxCell>
                <mxCell id="194" value="" style="dashed=0;aspect=fixed;verticalLabelPosition=bottom;verticalAlign=top;align=center;shape=mxgraph.gmdl.heart;strokeColor=none;fillColor=#737373;shadow=0;sketch=0;fontSize=14;" parent="193" vertex="1">
                    <mxGeometry x="11" y="12" width="20" height="18" as="geometry"/>
                </mxCell>
                <mxCell id="195" value="" style="rounded=0;whiteSpace=wrap;html=1;fontSize=14;container=1;" parent="184" vertex="1">
                    <mxGeometry x="89" y="360" width="161" height="40" as="geometry"/>
                </mxCell>
                <mxCell id="196" value="Add to cart" style="text;html=1;strokeColor=none;fillColor=none;align=center;verticalAlign=middle;whiteSpace=wrap;rounded=0;fontSize=14;" parent="195" vertex="1">
                    <mxGeometry x="10" y="5" width="140" height="30" as="geometry"/>
                </mxCell>
                <mxCell id="197" value="" style="rounded=0;whiteSpace=wrap;html=1;fontSize=14;container=1;" parent="184" vertex="1">
                    <mxGeometry x="10" y="50" width="260" height="40" as="geometry"/>
                </mxCell>
                <mxCell id="198" value="" style="triangle;whiteSpace=wrap;html=1;fontSize=14;direction=west;" parent="197" vertex="1">
                    <mxGeometry x="10" y="10" width="20" height="20" as="geometry"/>
                </mxCell>
                <mxCell id="199" value="" style="rounded=0;whiteSpace=wrap;html=1;fontSize=14;container=1;" parent="1" vertex="1">
                    <mxGeometry x="980" y="805" width="220" height="30" as="geometry"/>
                </mxCell>
                <mxCell id="200" value="Show bigger version of image" style="text;html=1;strokeColor=none;fillColor=none;align=left;verticalAlign=middle;whiteSpace=wrap;rounded=0;fontSize=14;" parent="199" vertex="1">
                    <mxGeometry x="12.941176470588237" width="196.0588235294118" height="30" as="geometry"/>
                </mxCell>
                <mxCell id="201" style="edgeStyle=none;html=1;exitX=1;exitY=0.5;exitDx=0;exitDy=0;entryX=0;entryY=0.5;entryDx=0;entryDy=0;" parent="1" source="189" target="199" edge="1">
                    <mxGeometry relative="1" as="geometry"/>
                </mxCell>
                <mxCell id="202" value="" style="rounded=0;whiteSpace=wrap;html=1;fontSize=14;container=1;" parent="1" vertex="1">
                    <mxGeometry x="980" y="1005" width="220" height="30" as="geometry"/>
                </mxCell>
                <mxCell id="203" value="Add this item to cart list" style="text;html=1;strokeColor=none;fillColor=none;align=left;verticalAlign=middle;whiteSpace=wrap;rounded=0;fontSize=14;" parent="202" vertex="1">
                    <mxGeometry x="12.941176470588237" width="196.0588235294118" height="30" as="geometry"/>
                </mxCell>
                <mxCell id="204" style="edgeStyle=none;html=1;exitX=1;exitY=0.5;exitDx=0;exitDy=0;entryX=0;entryY=0.5;entryDx=0;entryDy=0;" parent="1" source="195" target="202" edge="1">
                    <mxGeometry relative="1" as="geometry"/>
                </mxCell>
                <mxCell id="205" value="" style="rounded=0;whiteSpace=wrap;html=1;fontSize=14;container=1;" parent="1" vertex="1">
                    <mxGeometry x="980" y="1050" width="220" height="30" as="geometry"/>
                </mxCell>
                <mxCell id="206" value="Add this item to favorite list" style="text;html=1;strokeColor=none;fillColor=none;align=left;verticalAlign=middle;whiteSpace=wrap;rounded=0;fontSize=14;" parent="205" vertex="1">
                    <mxGeometry x="12.941176470588237" width="196.0588235294118" height="30" as="geometry"/>
                </mxCell>
                <mxCell id="207" style="edgeStyle=none;html=1;exitX=0.5;exitY=1;exitDx=0;exitDy=0;entryX=0;entryY=0.5;entryDx=0;entryDy=0;" parent="1" source="193" target="205" edge="1">
                    <mxGeometry relative="1" as="geometry">
                        <Array as="points">
                            <mxPoint x="730" y="1065"/>
                        </Array>
                    </mxGeometry>
                </mxCell>
                <mxCell id="208" value="" style="verticalLabelPosition=bottom;verticalAlign=top;html=1;shadow=0;dashed=0;strokeWidth=1;shape=mxgraph.android.phone2;strokeColor=#c0c0c0;fontSize=16;container=1;movable=1;resizable=1;rotatable=1;deletable=1;editable=1;connectable=1;backgroundOutline=0;expand=1;recursiveResize=0;" parent="1" vertex="1">
                    <mxGeometry x="120" width="280" height="560" as="geometry"/>
                </mxCell>
                <mxCell id="209" value="" style="rounded=0;whiteSpace=wrap;html=1;fontSize=16;container=1;movable=1;resizable=1;rotatable=1;deletable=1;editable=1;connectable=1;" parent="208" vertex="1">
                    <mxGeometry x="80" y="80" width="130" height="100" as="geometry"/>
                </mxCell>
                <mxCell id="210" value="&lt;font style=&quot;font-size: 24px;&quot;&gt;Logo&lt;/font&gt;" style="text;html=1;strokeColor=none;fillColor=none;align=center;verticalAlign=middle;whiteSpace=wrap;rounded=0;fontSize=16;movable=1;resizable=1;rotatable=1;deletable=1;editable=1;connectable=1;" parent="209" vertex="1">
                    <mxGeometry x="9.204464285714286" width="110.49999999999999" height="84.525" as="geometry"/>
                </mxCell>
                <mxCell id="211" value="" style="rounded=0;whiteSpace=wrap;html=1;fontSize=24;container=1;movable=1;resizable=1;rotatable=1;deletable=1;editable=1;connectable=1;" parent="208" vertex="1">
                    <mxGeometry x="40" y="300" width="200" height="30" as="geometry"/>
                </mxCell>
                <mxCell id="212" value="&lt;font style=&quot;font-size: 14px;&quot;&gt;Username&lt;/font&gt;" style="text;html=1;strokeColor=none;fillColor=none;align=center;verticalAlign=middle;whiteSpace=wrap;rounded=0;fontSize=24;movable=1;resizable=1;rotatable=1;deletable=1;editable=1;connectable=1;" parent="211" vertex="1">
                    <mxGeometry x="10" width="60" height="30" as="geometry"/>
                </mxCell>
                <mxCell id="213" value="" style="rounded=0;whiteSpace=wrap;html=1;fontSize=24;container=1;movable=1;resizable=1;rotatable=1;deletable=1;editable=1;connectable=1;" parent="208" vertex="1">
                    <mxGeometry x="40" y="350" width="200" height="30" as="geometry"/>
                </mxCell>
                <mxCell id="214" value="Password" style="text;html=1;strokeColor=none;fillColor=none;align=center;verticalAlign=middle;whiteSpace=wrap;rounded=0;fontSize=14;movable=1;resizable=1;rotatable=1;deletable=1;editable=1;connectable=1;" parent="213" vertex="1">
                    <mxGeometry x="10" width="60" height="30" as="geometry"/>
                </mxCell>
                <mxCell id="215" value="" style="rounded=0;whiteSpace=wrap;html=1;fontSize=24;container=1;movable=1;resizable=1;rotatable=1;deletable=1;editable=1;connectable=1;" parent="208" vertex="1">
                    <mxGeometry x="40" y="400" width="90" height="30" as="geometry"/>
                </mxCell>
                <mxCell id="216" value="Login" style="text;html=1;strokeColor=none;fillColor=none;align=center;verticalAlign=middle;whiteSpace=wrap;rounded=0;fontSize=14;movable=1;resizable=1;rotatable=1;deletable=1;editable=1;connectable=1;" parent="215" vertex="1">
                    <mxGeometry width="90" height="30" as="geometry"/>
                </mxCell>
                <mxCell id="217" value="" style="rounded=0;whiteSpace=wrap;html=1;fontSize=24;container=1;movable=1;resizable=1;rotatable=1;deletable=1;editable=1;connectable=1;" parent="208" vertex="1">
                    <mxGeometry x="150" y="400" width="90" height="30" as="geometry"/>
                </mxCell>
                <mxCell id="218" value="Register" style="text;html=1;strokeColor=none;fillColor=none;align=center;verticalAlign=middle;whiteSpace=wrap;rounded=0;fontSize=14;movable=1;resizable=1;rotatable=1;deletable=1;editable=1;connectable=1;" parent="217" vertex="1">
                    <mxGeometry width="90" height="30" as="geometry"/>
                </mxCell>
                <mxCell id="219" value="Login page" style="text;html=1;strokeColor=none;fillColor=none;align=center;verticalAlign=middle;whiteSpace=wrap;rounded=0;fontSize=14;movable=1;resizable=1;rotatable=1;deletable=1;editable=1;connectable=1;" parent="208" vertex="1">
                    <mxGeometry x="80" y="20" width="120" height="30" as="geometry"/>
                </mxCell>
                <mxCell id="220" value="" style="rounded=0;whiteSpace=wrap;html=1;fontSize=14;container=1;" parent="208" vertex="1">
                    <mxGeometry x="40" y="460" width="200" height="30" as="geometry"/>
                </mxCell>
                <mxCell id="221" value="Login via Google" style="text;html=1;strokeColor=none;fillColor=none;align=center;verticalAlign=middle;whiteSpace=wrap;rounded=0;fontSize=14;" parent="220" vertex="1">
                    <mxGeometry x="10" width="180" height="30" as="geometry"/>
                </mxCell>
                <mxCell id="222" value="" style="verticalLabelPosition=bottom;verticalAlign=top;html=1;shadow=0;dashed=0;strokeWidth=1;shape=mxgraph.android.phone2;strokeColor=#c0c0c0;fontSize=14;container=1;movable=1;resizable=1;rotatable=1;deletable=1;editable=1;connectable=1;recursiveResize=0;" parent="1" vertex="1">
                    <mxGeometry x="680" width="280" height="560" as="geometry"/>
                </mxCell>
                <mxCell id="223" value="" style="rounded=0;whiteSpace=wrap;html=1;fontSize=14;container=1;movable=1;resizable=1;rotatable=1;deletable=1;editable=1;connectable=1;" parent="222" vertex="1">
                    <mxGeometry x="10" y="50" width="260" height="40" as="geometry"/>
                </mxCell>
                <mxCell id="224" value="" style="triangle;whiteSpace=wrap;html=1;fontSize=14;direction=west;movable=1;resizable=1;rotatable=1;deletable=1;editable=1;connectable=1;" parent="223" vertex="1">
                    <mxGeometry x="10" y="10" width="20" height="20" as="geometry"/>
                </mxCell>
                <mxCell id="225" value="" style="rounded=0;whiteSpace=wrap;html=1;fontSize=14;container=1;movable=1;resizable=1;rotatable=1;deletable=1;editable=1;connectable=1;" parent="222" vertex="1">
                    <mxGeometry x="40" y="120" width="200" height="30" as="geometry"/>
                </mxCell>
                <mxCell id="226" value="Username" style="text;html=1;strokeColor=none;fillColor=none;align=left;verticalAlign=middle;whiteSpace=wrap;rounded=0;fontSize=14;movable=1;resizable=1;rotatable=1;deletable=1;editable=1;connectable=1;" parent="225" vertex="1">
                    <mxGeometry x="10" width="180" height="30" as="geometry"/>
                </mxCell>
                <mxCell id="227" value="" style="rounded=0;whiteSpace=wrap;html=1;fontSize=14;container=1;movable=1;resizable=1;rotatable=1;deletable=1;editable=1;connectable=1;" parent="222" vertex="1">
                    <mxGeometry x="160" y="450" width="80" height="30" as="geometry"/>
                </mxCell>
                <mxCell id="228" value="Register" style="text;html=1;strokeColor=none;fillColor=none;align=center;verticalAlign=middle;whiteSpace=wrap;rounded=0;fontSize=14;movable=1;resizable=1;rotatable=1;deletable=1;editable=1;connectable=1;" parent="227" vertex="1">
                    <mxGeometry width="80" height="30" as="geometry"/>
                </mxCell>
                <mxCell id="229" value="Register page" style="text;html=1;strokeColor=none;fillColor=none;align=center;verticalAlign=middle;whiteSpace=wrap;rounded=0;fontSize=14;movable=1;resizable=1;rotatable=1;deletable=1;editable=1;connectable=1;" parent="222" vertex="1">
                    <mxGeometry x="80" y="20" width="120" height="30" as="geometry"/>
                </mxCell>
                <mxCell id="230" value="" style="rounded=0;whiteSpace=wrap;html=1;fontSize=14;container=1;movable=1;resizable=1;rotatable=1;deletable=1;editable=1;connectable=1;" parent="222" vertex="1">
                    <mxGeometry x="40" y="170" width="200" height="30" as="geometry"/>
                </mxCell>
                <mxCell id="231" value="Email" style="text;html=1;strokeColor=none;fillColor=none;align=left;verticalAlign=middle;whiteSpace=wrap;rounded=0;fontSize=14;movable=1;resizable=1;rotatable=1;deletable=1;editable=1;connectable=1;" parent="230" vertex="1">
                    <mxGeometry x="10" width="180" height="30" as="geometry"/>
                </mxCell>
                <mxCell id="232" value="" style="rounded=0;whiteSpace=wrap;html=1;fontSize=14;container=1;movable=1;resizable=1;rotatable=1;deletable=1;editable=1;connectable=1;" parent="222" vertex="1">
                    <mxGeometry x="40" y="310" width="200" height="30" as="geometry"/>
                </mxCell>
                <mxCell id="233" value="Password" style="text;html=1;strokeColor=none;fillColor=none;align=left;verticalAlign=middle;whiteSpace=wrap;rounded=0;fontSize=14;movable=1;resizable=1;rotatable=1;deletable=1;editable=1;connectable=1;" parent="232" vertex="1">
                    <mxGeometry x="10" width="180" height="30" as="geometry"/>
                </mxCell>
                <mxCell id="234" value="" style="rounded=0;whiteSpace=wrap;html=1;fontSize=14;container=1;movable=1;resizable=1;rotatable=1;deletable=1;editable=1;connectable=1;" parent="222" vertex="1">
                    <mxGeometry x="40" y="360" width="200" height="30" as="geometry"/>
                </mxCell>
                <mxCell id="235" value="Confirm password" style="text;html=1;strokeColor=none;fillColor=none;align=left;verticalAlign=middle;whiteSpace=wrap;rounded=0;fontSize=14;movable=1;resizable=1;rotatable=1;deletable=1;editable=1;connectable=1;" parent="234" vertex="1">
                    <mxGeometry x="10" width="180" height="30" as="geometry"/>
                </mxCell>
                <mxCell id="236" value="" style="rounded=0;whiteSpace=wrap;html=1;fontSize=14;container=1;" parent="222" vertex="1">
                    <mxGeometry x="40" y="220" width="200" height="30" as="geometry"/>
                </mxCell>
                <mxCell id="237" value="Address" style="text;html=1;strokeColor=none;fillColor=none;align=left;verticalAlign=middle;whiteSpace=wrap;rounded=0;fontSize=14;" parent="236" vertex="1">
                    <mxGeometry x="10" width="180" height="30" as="geometry"/>
                </mxCell>
                <mxCell id="238" value="" style="rounded=0;whiteSpace=wrap;html=1;fontSize=14;container=1;" parent="222" vertex="1">
                    <mxGeometry x="40" y="265" width="200" height="30" as="geometry"/>
                </mxCell>
                <mxCell id="239" value="Phone number" style="text;html=1;strokeColor=none;fillColor=none;align=left;verticalAlign=middle;whiteSpace=wrap;rounded=0;fontSize=14;" parent="238" vertex="1">
                    <mxGeometry x="10" width="180" height="30" as="geometry"/>
                </mxCell>
                <mxCell id="241" value="" style="rounded=0;whiteSpace=wrap;html=1;fontSize=14;container=1;" parent="1" vertex="1">
                    <mxGeometry x="420" y="400" width="180" height="30" as="geometry"/>
                </mxCell>
                <mxCell id="242" value="Go to register page" style="text;html=1;strokeColor=none;fillColor=none;align=center;verticalAlign=middle;whiteSpace=wrap;rounded=0;fontSize=14;" parent="241" vertex="1">
                    <mxGeometry x="4.75" width="175.25" height="30" as="geometry"/>
                </mxCell>
                <mxCell id="243" style="edgeStyle=none;html=1;exitX=1;exitY=0.5;exitDx=0;exitDy=0;entryX=0;entryY=0.5;entryDx=0;entryDy=0;" parent="1" source="218" target="241" edge="1">
                    <mxGeometry relative="1" as="geometry"/>
                </mxCell>
                <mxCell id="244" value="" style="rounded=0;whiteSpace=wrap;html=1;fontSize=14;container=1;" parent="1" vertex="1">
                    <mxGeometry x="420" y="460" width="180" height="30" as="geometry"/>
                </mxCell>
                <mxCell id="245" value="Login using OAuth" style="text;html=1;strokeColor=none;fillColor=none;align=center;verticalAlign=middle;whiteSpace=wrap;rounded=0;fontSize=14;" parent="244" vertex="1">
                    <mxGeometry x="4.75" width="175.25" height="30" as="geometry"/>
                </mxCell>
                <mxCell id="246" style="edgeStyle=none;html=1;exitX=1;exitY=0.5;exitDx=0;exitDy=0;entryX=0;entryY=0.5;entryDx=0;entryDy=0;" parent="1" source="220" target="244" edge="1">
                    <mxGeometry relative="1" as="geometry"/>
                </mxCell>
                <mxCell id="247" value="" style="rounded=0;whiteSpace=wrap;html=1;fontSize=14;container=1;" parent="1" vertex="1">
                    <mxGeometry x="-80" y="400" width="180" height="30" as="geometry"/>
                </mxCell>
                <mxCell id="248" value="Login and go to homepage" style="text;html=1;strokeColor=none;fillColor=none;align=center;verticalAlign=middle;whiteSpace=wrap;rounded=0;fontSize=14;" parent="247" vertex="1">
                    <mxGeometry x="4.75" width="175.25" height="30" as="geometry"/>
                </mxCell>
                <mxCell id="249" style="edgeStyle=none;html=1;exitX=0;exitY=0.5;exitDx=0;exitDy=0;entryX=1;entryY=0.5;entryDx=0;entryDy=0;" parent="1" source="216" target="248" edge="1">
                    <mxGeometry relative="1" as="geometry"/>
                </mxCell>
                <mxCell id="250" value="" style="rounded=0;whiteSpace=wrap;html=1;fontSize=14;container=1;" parent="1" vertex="1">
                    <mxGeometry x="980" y="450" width="180" height="30" as="geometry"/>
                </mxCell>
                <mxCell id="251" value="Save new user to database" style="text;html=1;strokeColor=none;fillColor=none;align=center;verticalAlign=middle;whiteSpace=wrap;rounded=0;fontSize=14;" parent="250" vertex="1">
                    <mxGeometry x="4.75" width="175.25" height="30" as="geometry"/>
                </mxCell>
                <mxCell id="252" style="edgeStyle=none;html=1;exitX=1;exitY=0.5;exitDx=0;exitDy=0;entryX=0;entryY=0.5;entryDx=0;entryDy=0;" parent="1" source="228" target="250" edge="1">
                    <mxGeometry relative="1" as="geometry"/>
                </mxCell>
            </root>
        </mxGraphModel>
    </diagram>
</mxfile>